<?xml version="1.0" standalone="no"?>
<!DOCTYPE svg PUBLIC "-//W3C//DTD SVG 20010904//EN"
 "http://www.w3.org/TR/2001/REC-SVG-20010904/DTD/svg10.dtd">
<svg version="1.0" xmlns="http://www.w3.org/2000/svg"
 width="85.000000pt" height="82.000000pt" viewBox="0 0 85.000000 82.000000"
 preserveAspectRatio="xMidYMid meet">

<g transform="translate(0.000000,82.000000) scale(0.100000,-0.100000)"
fill="#000000" stroke="none">
<path d="M420 497 c0 -204 2 -237 15 -237 8 0 15 -4 15 -10 0 -11 162 -132
168 -125 2 2 -13 54 -33 116 -21 63 -33 114 -28 118 72 49 183 136 177 138 -5
2 -60 4 -123 5 l-113 3 -34 110 c-19 60 -37 111 -39 114 -3 2 -5 -102 -5 -232z"/>
</g>
</svg>
