<?xml version="1.0" encoding="UTF-8" standalone="no"?>
<!DOCTYPE svg PUBLIC "-//W3C//DTD SVG 1.1//EN" "http://www.w3.org/Graphics/SVG/1.1/DTD/svg11.dtd">
<!-- Created with Vectornator (http://vectornator.io/) -->
<svg height="100%" stroke-miterlimit="10" style="fill-rule:nonzero;clip-rule:evenodd;stroke-linecap:round;stroke-linejoin:round;" version="1.1" viewBox="0 0 400 400" width="100%" xml:space="preserve" xmlns="http://www.w3.org/2000/svg" xmlns:vectornator="http://vectornator.io" xmlns:xlink="http://www.w3.org/1999/xlink">
<defs/>
<g id="Слой-3" vectornator:layerName="Слой 3"/>
<g id="Слой-3-скопировать" vectornator:layerName="Слой 3 скопировать">
<path d="M201.601 215.787L111.672 246.355L90.4409 376.841L201.601 215.787Z" fill="#fac431" fill-rule="evenodd" opacity="1" stroke="none"/>
<path d="M201.611 215.814L145.933 135.352L21.6251 154.329L201.611 215.814Z" fill="#edb419" fill-rule="evenodd" opacity="1" stroke="none"/>
</g>
<g id="Слой-3-скопировать-скопировать" vectornator:layerName="Слой 3 скопировать скопировать"/>
<g id="Слой-3-скопировать-скопировать-скопировать" vectornator:layerName="Слой 3 скопировать скопировать скопировать"/>
<g id="Слой-3-скопировать-скопировать-скопировать-скопировать" vectornator:layerName="Слой 3 скопировать скопировать скопировать скопировать">
<path d="M201.568 215.824L246.436 132.393L201.681 17.0534L201.568 215.824Z" fill="#fe9503" fill-rule="evenodd" opacity="1" stroke="none"/>
<path d="M201.575 215.797L291.038 246.632L381.211 154.515L201.575 215.797Z" fill="#f07e00" fill-rule="evenodd" opacity="1" stroke="none"/>
<path d="M201.593 215.779L201.61 314.926L312.326 375.985L201.593 215.779Z" fill="#f07e00" fill-rule="evenodd" opacity="1" stroke="none"/>
</g>
<g id="Слой-3-скопировать-скопировать-скопировать-скопировать-скопировать" vectornator:layerName="Слой 3 скопировать скопировать скопировать скопировать скопировать">
<path d="M201.573 215.791L145.863 135.378L201.712 17.0568L201.573 215.791Z" fill="#fac431" fill-rule="evenodd" opacity="1" stroke="none"/>
<path d="M201.585 215.791L111.678 246.369L21.6421 154.326L201.585 215.791Z" fill="#f07e00" fill-rule="evenodd" opacity="1" stroke="none"/>
<path d="M201.595 215.793L201.621 314.913L90.4516 376.819L201.595 215.793Z" fill="#fe9503" fill-rule="evenodd" opacity="1" stroke="none"/>
<path d="M201.579 215.788L291.045 246.604L312.361 376.01L201.579 215.788Z" fill="#edb419" fill-rule="evenodd" opacity="1" stroke="none"/>
<path d="M201.584 215.799L246.419 132.376L381.158 154.515L201.584 215.799Z" fill="#fac431" fill-rule="evenodd" opacity="1" stroke="none"/>
</g>
<g id="Слой-1" vectornator:layerName="Слой 1">
<path d="M201.634 16.8412L146.014 135.335L21.6432 154.336L111.639 246.57L90.3936 376.807L201.634 315.317L312.875 376.807L291.63 246.57L381.625 154.336L246.561 132.643L201.634 16.8412Z" fill="none" fill-rule="evenodd" opacity="1" stroke="#e8b11d" stroke-linecap="square" stroke-linejoin="miter" stroke-width="8.07384"/>
</g>
</svg>
